<svg xmlns:xlink="http://www.w3.org/1999/xlink" xmlns="http://www.w3.org/2000/svg" version="1.1" fill="none" stroke="none" stroke-linecap="square" stroke-miterlimit="10" viewBox="0.18 0.25 950 185"><clipPath id="p.0"><path d="m0 0l960.0 0l0 540.0l-960.0 0l0 -540.0z" clip-rule="nonzero"/></clipPath><g clip-path="url(#p.0)"><path fill="none" d="m0 0l960.0 0l0 540.0l-960.0 0z" fill-rule="evenodd"/><g filter="url(#shadowFilter-p.1)"><use xlink:href="#p.1" transform="matrix(1.0 0.0 0.0 1.0 6.922524409448819 8.548605511811026)"/></g><defs><filter id="shadowFilter-p.1" filterUnits="userSpaceOnUse"><feGaussianBlur in="SourceAlpha" stdDeviation="3.5" result="blur"/><feComponentTransfer in="blur" color-interpolation-filters="sRGB"><feFuncR type="linear" slope="0" intercept="0.0"/><feFuncG type="linear" slope="0" intercept="0.0"/><feFuncB type="linear" slope="0" intercept="0.0"/><feFuncA type="linear" slope="0.5" intercept="0"/></feComponentTransfer></filter></defs><g id="p.1"><path fill="#00ff00" d="m0.67675537 27.726473l94.71077 -7.227852l10.7563095 141.1359l-94.71077 7.227844z" fill-rule="evenodd"/><path fill="#00cb00" d="m95.38753 20.498621l8.203026 -9.557511l10.756317 141.1359l-8.203033 9.55751z" fill-rule="evenodd"/><path fill="#33ff33" d="m0.67675537 27.726473l8.203027 -9.557512l94.71077 -7.227851l-8.203026 9.557511z" fill-rule="evenodd"/><path fill="#000000" fill-opacity="0.0" d="m0.67675537 27.726473l8.203027 -9.557512l94.71077 -7.227851l10.756317 141.1359l-8.203033 9.55751l-94.71077 7.227844zm0 0l94.71077 -7.227852l8.203026 -9.557511m-8.203026 9.557511l10.7563095 141.1359" fill-rule="evenodd"/><path stroke="#595959" stroke-width="1.0" stroke-linejoin="round" stroke-linecap="butt" d="m0.67675537 27.726473l8.203027 -9.557512l94.71077 -7.227851l10.756317 141.1359l-8.203033 9.55751l-94.71077 7.227844zm0 0l94.71077 -7.227852l8.203026 -9.557511m-8.203026 9.557511l10.7563095 141.1359" fill-rule="evenodd"/><path fill="#000000" d="m53.93523 118.41499q-5.359417 0.4090042 -8.62957 -1.5823059q-3.255764 -2.0080795 -4.8731766 -5.9589615q-1.6174126 -3.950882 -2.0211182 -9.248016l-1.3227386 -17.355919q-0.4179573 -5.4841003 0.6778717 -9.610695q1.0958328 -4.126602 4.3403664 -6.58374q3.2433434 -2.4727173 9.11689 -2.9209595q5.748909 -0.43872833 9.182274 1.2267227q3.4333649 1.6654434 5.093193 4.9392548q1.6598358 3.273819 2.0053635 7.807541l0.25291443 3.3185043l-11.170647 0.85248566l-0.32059097 -4.2065506q-0.12704849 -1.667038 -0.4676094 -3.0513916q-0.32497787 -1.3855362 -1.1848488 -2.1817856q-0.8610573 -0.81183624 -2.6527252 -0.67510223q-1.853981 0.14148712 -2.603714 1.2016068q-0.75091934 1.044548 -0.8718147 2.5424652q-0.10650253 1.4811478 0.0146102905 3.0702896l1.8238106 23.930603q0.13179779 1.7293549 0.5885391 3.1988602q0.47232056 1.4683151 1.4627686 2.332962q1.004837 0.8478699 2.7341805 0.7158966q1.7760887 -0.13554382 2.6540184 -1.1584396q0.89232254 -1.0396652 1.1498756 -2.595024q0.27194214 -1.5721283 0.14133072 -3.285904l-0.46189117 -6.0605545l-4.658329 0.3555069l-0.51057434 -6.6993256l14.940933 -1.1402206l2.0422897 26.797295l-7.5249977 0.5742645l-0.9641075 -4.2201233q-0.8632164 2.244072 -2.7325974 3.828415q-1.8693848 1.5843353 -5.2501793 1.8423462z" fill-rule="nonzero"/></g><g filter="url(#shadowFilter-p.2)"><use xlink:href="#p.2" transform="matrix(1.0 0.0 0.0 1.0 6.9225244094488225 8.548605511811026)"/></g><defs><filter id="shadowFilter-p.2" filterUnits="userSpaceOnUse"><feGaussianBlur in="SourceAlpha" stdDeviation="3.5" result="blur"/><feComponentTransfer in="blur" color-interpolation-filters="sRGB"><feFuncR type="linear" slope="0" intercept="0.0"/><feFuncG type="linear" slope="0" intercept="0.0"/><feFuncB type="linear" slope="0" intercept="0.0"/><feFuncA type="linear" slope="0.5" intercept="0"/></feComponentTransfer></filter></defs><g id="p.2"><path fill="#ffd700" d="m136.05554 10.874111l94.94113 4.0602674l-6.0743713 141.4294l-94.94115 -4.060257z" fill-rule="evenodd"/><path fill="#cbab00" d="m230.99667 14.934379l9.283691 -8.520634l-6.0743713 141.4294l-9.283691 8.52063z" fill-rule="evenodd"/><path fill="#ffdf33" d="m136.05554 10.874111l9.283691 -8.520633l94.94113 4.060267l-9.283691 8.520634z" fill-rule="evenodd"/><path fill="#000000" fill-opacity="0.0" d="m136.05554 10.874111l9.283691 -8.520633l94.94113 4.060267l-6.0743713 141.4294l-9.283691 8.52063l-94.94115 -4.060257zm0 0l94.94113 4.0602674l9.283691 -8.520634m-9.283691 8.520634l-6.0743713 141.4294" fill-rule="evenodd"/><path stroke="#595959" stroke-width="1.0" stroke-linejoin="round" stroke-linecap="butt" d="m136.05554 10.874111l9.283691 -8.520633l94.94113 4.060267l-6.0743713 141.4294l-9.283691 8.52063l-94.94115 -4.060257zm0 0l94.94113 4.0602674l9.283691 -8.520634m-9.283691 8.520634l-6.0743713 141.4294" fill-rule="evenodd"/><path fill="#000000" d="m164.02998 105.87603l2.22464 -51.795998l11.442657 0.489357l-0.9011078 20.98066l7.992691 0.34181213l0.9011078 -20.980656l11.520721 0.49269867l-2.2246246 51.796l-11.520721 -0.49269867l0.9721832 -22.635384l-7.992691 -0.34181976l-0.9721832 22.635384l-11.442673 -0.489357z" fill-rule="nonzero"/></g><g filter="url(#shadowFilter-p.3)"><use xlink:href="#p.3" transform="matrix(1.0 0.0 0.0 1.0 6.922524409448803 8.548605511811006)"/></g><defs><filter id="shadowFilter-p.3" filterUnits="userSpaceOnUse"><feGaussianBlur in="SourceAlpha" stdDeviation="3.5" result="blur"/><feComponentTransfer in="blur" color-interpolation-filters="sRGB"><feFuncR type="linear" slope="0" intercept="0.0"/><feFuncG type="linear" slope="0" intercept="0.0"/><feFuncB type="linear" slope="0" intercept="0.0"/><feFuncA type="linear" slope="0.5" intercept="0"/></feComponentTransfer></filter></defs><g id="p.3"><path fill="#ff9900" d="m256.41693 27.229023l94.76837 -6.392761l9.541443 141.22513l-94.76837 6.392761z" fill-rule="evenodd"/><path fill="#cb7a00" d="m351.1853 20.836262l8.284882 -9.484484l9.541443 141.22511l-8.284882 9.484497z" fill-rule="evenodd"/><path fill="#ffad33" d="m256.41693 27.229023l8.284882 -9.484484l94.76837 -6.392761l-8.284882 9.484484z" fill-rule="evenodd"/><path fill="#000000" fill-opacity="0.0" d="m256.41693 27.229023l8.284882 -9.484484l94.76837 -6.392761l9.541443 141.22511l-8.284882 9.484497l-94.76837 6.392761zm0 0l94.76837 -6.392761l8.284882 -9.484484m-8.284882 9.484484l9.541443 141.22513" fill-rule="evenodd"/><path stroke="#595959" stroke-width="1.0" stroke-linejoin="round" stroke-linecap="butt" d="m256.41693 27.229023l8.284882 -9.484484l94.76837 -6.392761l9.541443 141.22511l-8.284882 9.484497l-94.76837 6.392761zm0 0l94.76837 -6.392761l8.284882 -9.484484m-8.284882 9.484484l9.541443 141.22513" fill-rule="evenodd"/><path fill="#000000" d="m299.68167 118.23703l-3.49469 -51.72583l23.24405 -1.5679626l0.5266113 7.794731l-11.816895 0.79712677l0.8668213 12.830124l8.995209 -0.606781l0.5350342 7.919441l-8.995178 0.60678864l1.0437622 15.449158l11.94162 -0.805542l0.5224304 7.7323685l-23.368774 1.5763779zm4.5230103 -56.369728l3.1552734 -13.101444l10.600922 -0.71510315l-7.1773987 13.372765l-6.5787964 0.4437828z" fill-rule="nonzero"/></g><g filter="url(#shadowFilter-p.4)"><use xlink:href="#p.4" transform="matrix(1.0 0.0 0.0 1.0 6.922524409448841 8.548605511811026)"/></g><defs><filter id="shadowFilter-p.4" filterUnits="userSpaceOnUse"><feGaussianBlur in="SourceAlpha" stdDeviation="3.5" result="blur"/><feComponentTransfer in="blur" color-interpolation-filters="sRGB"><feFuncR type="linear" slope="0" intercept="0.0"/><feFuncG type="linear" slope="0" intercept="0.0"/><feFuncB type="linear" slope="0" intercept="0.0"/><feFuncA type="linear" slope="0.5" intercept="0"/></feComponentTransfer></filter></defs><g id="p.4"><path fill="#ff0000" d="m391.05276 11.010723l94.96994 3.8298979l-5.6891174 141.45808l-94.96994 -3.829895z" fill-rule="evenodd"/><path fill="#cb0000" d="m486.0227 14.840621l9.262207 -8.545041l-5.689148 141.45808l-9.2621765 8.545044z" fill-rule="evenodd"/><path fill="#ff3333" d="m391.05276 11.010723l9.262207 -8.54504l94.96994 3.8298974l-9.262207 8.545041z" fill-rule="evenodd"/><path fill="#000000" fill-opacity="0.0" d="m391.05276 11.010723l9.262207 -8.54504l94.96994 3.8298974l-5.689148 141.45808l-9.2621765 8.545044l-94.96994 -3.829895zm0 0l94.96994 3.8298979l9.262207 -8.545041m-9.262207 8.545041l-5.6891174 141.45808" fill-rule="evenodd"/><path stroke="#595959" stroke-width="1.0" stroke-linejoin="round" stroke-linecap="butt" d="m391.05276 11.010723l9.262207 -8.54504l94.96994 3.8298974l-5.689148 141.45808l-9.2621765 8.545044l-94.96994 -3.829895zm0 0l94.96994 3.8298979l9.262207 -8.545041m-9.262207 8.545041l-5.6891174 141.45808" fill-rule="evenodd"/><path fill="#000000" d="m420.35483 105.994804l2.0833435 -51.801876l17.39212 0.7013817q4.668091 0.1882515 7.594696 2.0733337q2.9422302 1.8857117 4.2747803 5.3015556q1.33255 3.415844 1.139801 8.208843q-0.24176025 6.010765 -2.3519592 9.100121q-2.1096191 3.0737457 -5.5464478 4.1548843q-3.4368591 1.0811386 -7.652191 0.9111481l-4.6056213 -0.18573761l-0.8847046 21.997849l-11.443817 -0.46150208zm12.649994 -29.529884l3.8406372 0.15488434q2.107666 0.084999084 3.2156677 -0.63656616q1.1236267 -0.720932 1.528656 -2.2370987q0.42123413 -1.5311432 0.51605225 -3.8886108q0.07974243 -1.9827728 -0.15661621 -3.4935226q-0.22012329 -1.525734 -1.2771912 -2.459713q-1.0408325 -0.94895935 -3.335846 -1.0415115l-3.7781677 -0.15236282l-0.55319214 13.754501z" fill-rule="nonzero"/></g><g filter="url(#shadowFilter-p.5)"><use xlink:href="#p.5" transform="matrix(1.0 0.0 0.0 1.0 6.922524409448841 8.548605511811026)"/></g><defs><filter id="shadowFilter-p.5" filterUnits="userSpaceOnUse"><feGaussianBlur in="SourceAlpha" stdDeviation="3.5" result="blur"/><feComponentTransfer in="blur" color-interpolation-filters="sRGB"><feFuncR type="linear" slope="0" intercept="0.0"/><feFuncG type="linear" slope="0" intercept="0.0"/><feFuncB type="linear" slope="0" intercept="0.0"/><feFuncA type="linear" slope="0.5" intercept="0"/></feComponentTransfer></filter></defs><g id="p.5"><path fill="#9900ff" d="m575.6586 16.236769l94.79718 -5.644059l8.415466 141.28535l-94.79712 5.644058z" fill-rule="evenodd"/><path fill="#7a00cb" d="m670.4558 10.59271l8.358459 -9.417037l8.415527 141.28535l-8.3585205 9.417038z" fill-rule="evenodd"/><path fill="#ad33ff" d="m575.6586 16.236769l8.3585205 -9.417038l94.79712 -5.644059l-8.358459 9.417037z" fill-rule="evenodd"/><path fill="#000000" fill-opacity="0.0" d="m575.6586 16.236769l8.3585205 -9.417038l94.79712 -5.644059l8.415527 141.28535l-8.3585205 9.417038l-94.79712 5.644058zm0 0l94.79718 -5.644059l8.358459 -9.417037m-8.358459 9.417037l8.415466 141.28535" fill-rule="evenodd"/><path stroke="#595959" stroke-width="1.0" stroke-linejoin="round" stroke-linecap="butt" d="m575.6586 16.236769l8.3585205 -9.417038l94.79712 -5.644059l8.415527 141.28535l-8.3585205 9.417038l-94.79712 5.644058zm0 0l94.79718 -5.644059l8.358459 -9.417037m-8.358459 9.417037l8.415466 141.28535" fill-rule="evenodd"/><path fill="#000000" d="m629.3448 107.6812q-5.880188 0.35009766 -9.423279 -1.583374q-3.5430908 -1.933464 -5.177307 -5.718025q-1.6341553 -3.7845688 -1.9462891 -9.025284l-1.111145 -18.654434q-0.31958008 -5.365494 0.8547363 -9.301617q1.1733398 -3.9517212 4.463745 -6.2607384q3.2894897 -2.3246117 9.169678 -2.6747093q5.755432 -0.34267044 9.080933 1.3533096q3.3410645 1.6950531 4.884033 4.999817q1.5429688 3.30476 1.8059082 7.718815l0.26568604 4.460846l-11.167725 0.66490173l-0.30749512 -5.1627197q-0.09197998 -1.5441437 -0.34716797 -2.9376907q-0.23956299 -1.3944702 -1.0586548 -2.2692146q-0.8200073 -0.8903389 -2.6761475 -0.7798271q-1.7937012 0.10679245 -2.593933 1.1249046q-0.8012085 1.0025139 -0.949646 2.451397q-0.13293457 1.4479599 -0.037231445 3.0544891l1.4492798 24.331871q0.103149414 1.731308 0.46936035 3.1495514q0.38183594 1.4173126 1.291687 2.239685q0.92456055 0.8058548 2.5778809 0.70742035q1.7937012 -0.106796265 2.5031738 -1.0725403q0.7085571 -0.98134613 0.8083496 -2.458641q0.115478516 -1.4782257 0.023498535 -3.0223618l-0.32330322 -5.4278793l11.167725 -0.66490936l0.26660156 4.4764404q0.26293945 4.414055 -0.8400879 7.9702682q-1.1029663 3.5562134 -4.211792 5.7605057q-3.0932007 2.203354 -8.911072 2.5497437z" fill-rule="nonzero"/></g><g filter="url(#shadowFilter-p.6)"><use xlink:href="#p.6" transform="matrix(1.0 0.0 0.0 1.0 6.922524409448841 8.548605511811026)"/></g><defs><filter id="shadowFilter-p.6" filterUnits="userSpaceOnUse"><feGaussianBlur in="SourceAlpha" stdDeviation="3.5" result="blur"/><feComponentTransfer in="blur" color-interpolation-filters="sRGB"><feFuncR type="linear" slope="0" intercept="0.0"/><feFuncG type="linear" slope="0" intercept="0.0"/><feFuncB type="linear" slope="0" intercept="0.0"/><feFuncA type="linear" slope="0.5" intercept="0"/></feComponentTransfer></filter></defs><g id="p.6"><path fill="#ff00ff" d="m700.8985 32.937275l94.76837 -6.507946l9.719055 141.19366l-94.76831 6.50795z" fill-rule="evenodd"/><path fill="#cb00cb" d="m795.6669 26.429329l8.27356 -9.495247l9.719116 141.19366l-8.273621 9.495239z" fill-rule="evenodd"/><path fill="#ff33ff" d="m700.8985 32.937275l8.27356 -9.495247l94.76837 -6.507946l-8.27356 9.495247z" fill-rule="evenodd"/><path fill="#000000" fill-opacity="0.0" d="m700.8985 32.937275l8.27356 -9.495247l94.76837 -6.507946l9.719116 141.19366l-8.273621 9.495239l-94.76831 6.50795zm0 0l94.76837 -6.507946l8.27356 -9.495247m-8.27356 9.495247l9.719055 141.19366" fill-rule="evenodd"/><path stroke="#595959" stroke-width="1.0" stroke-linejoin="round" stroke-linecap="butt" d="m700.8985 32.937275l8.27356 -9.495247l94.76837 -6.507946l9.719116 141.19366l-8.273621 9.495239l-94.76831 6.50795zm0 0l94.76837 -6.507946l8.27356 -9.495247m-8.27356 9.495247l9.719055 141.19366" fill-rule="evenodd"/><path fill="#000000" d="m739.26526 124.22712l-3.5602417 -51.72136l11.4262085 -0.78466034l1.4421387 20.950424l7.981201 -0.5480881l-1.4421387 -20.950424l11.50415 -0.7900162l3.5602417 51.721367l-11.50415 0.79000854l-1.5558472 -22.60276l-7.981201 0.5480881l1.5558472 22.60276l-11.4262085 0.78466034z" fill-rule="nonzero"/></g><g filter="url(#shadowFilter-p.7)"><use xlink:href="#p.7" transform="matrix(1.0 0.0 0.0 1.0 6.922524409448841 8.548605511811026)"/></g><defs><filter id="shadowFilter-p.7" filterUnits="userSpaceOnUse"><feGaussianBlur in="SourceAlpha" stdDeviation="3.5" result="blur"/><feComponentTransfer in="blur" color-interpolation-filters="sRGB"><feFuncR type="linear" slope="0" intercept="0.0"/><feFuncG type="linear" slope="0" intercept="0.0"/><feFuncB type="linear" slope="0" intercept="0.0"/><feFuncA type="linear" slope="0.5" intercept="0"/></feComponentTransfer></filter></defs><g id="p.7"><path fill="#4a86e8" d="m838.7172 8.874544l94.65314 8.034145l-11.941528 141.0467l-94.6532 -8.034134z" fill-rule="evenodd"/><path fill="#3b6bb9" d="m933.37036 16.90869l9.625732 -8.121288l-11.941528 141.04672l-9.625732 8.121277z" fill-rule="evenodd"/><path fill="#6e9eec" d="m838.7172 8.874544l9.625732 -8.121288l94.65314 8.034145l-9.625732 8.121288z" fill-rule="evenodd"/><path fill="#000000" fill-opacity="0.0" d="m838.7172 8.874544l9.625732 -8.121288l94.65314 8.034145l-11.941528 141.04672l-9.625732 8.121277l-94.6532 -8.034134zm0 0l94.65314 8.034145l9.625732 -8.121288m-9.625732 8.121288l-11.941528 141.0467" fill-rule="evenodd"/><path stroke="#595959" stroke-width="1.0" stroke-linejoin="round" stroke-linecap="butt" d="m838.7172 8.874544l9.625732 -8.121288l94.65314 8.034145l-11.941528 141.04672l-9.625732 8.121277l-94.6532 -8.034134zm0 0l94.65314 8.034145l9.625732 -8.121288m-9.625732 8.121288l-11.941528 141.0467" fill-rule="evenodd"/><path fill="#000000" d="m878.0697 107.0358q-5.9318237 -0.50348663 -9.11438 -2.7337723q-3.1825562 -2.2302856 -4.206421 -6.064995q-1.022583 -3.8502808 -0.5639038 -9.268394l3.0186157 -35.653698l11.287537 0.9580841l-3.1635742 37.36632q-0.13580322 1.6036377 -0.022460938 3.2284164q0.13024902 1.6105347 0.89953613 2.7107925q0.78619385 1.0860062 2.5610352 1.2366562q1.8527222 0.15725708 2.7635498 -0.7847061q0.9277344 -0.9562149 1.2801514 -2.5257797q0.35375977 -1.5851364 0.48950195 -3.188774l3.1635742 -37.36632l11.3497925 0.9633713l-3.0185547 35.653698q-0.45874023 5.4181137 -2.1451416 9.038452q-1.6851196 3.6047745 -5.1660767 5.269455q-3.480957 1.6646881 -9.412781 1.1611938zm12.446838 -47.555183l0.35064697 -4.1414337l0.63830566 0.054180145q1.914978 0.16254425 2.7938843 -1.1427994q0.880188 -1.3209152 1.1121826 -4.0611115l7.270752 0.6171379q-0.41125488 4.8576202 -3.6190796 7.000244q-3.190918 2.128376 -7.908325 1.7279625l-0.6383667 -0.054180145zm-2.3546143 -10.1574135q-1.6035767 -0.13611221 -2.8779297 -1.0126572q-1.274353 -0.87654495 -2.4268188 -1.7113762q-1.135498 -0.84908295 -2.4121704 -0.95744705q-1.4012451 -0.11893463 -1.9212646 0.65234756q-0.5187378 0.7557106 -0.60443115 1.7677155l-4.9664917 -0.42155838q0.22143555 -2.6156425 0.892334 -4.612934q0.6864624 -1.9959679 2.0619507 -3.0553017q1.3768921 -1.0749054 3.5409546 -0.8912163q1.6036377 0.13611221 2.789795 0.9424515q1.1862183 0.80633926 2.3257446 1.6087112q1.1550293 0.8036957 2.4939575 0.91734314q1.0898438 0.09250641 1.585083 -0.5711098q0.51086426 -0.6622963 0.59783936 -1.6898689l4.5928345 0.38983917q-0.17266846 2.0395813 -0.6477051 4.131897q-0.45825195 2.0780678 -1.6355591 3.3894424q-1.1617432 1.3126984 -3.3881226 1.1237221z" fill-rule="nonzero"/></g></g></svg>